<?xml version="1.0" encoding="UTF-8" standalone="no"?>
<!-- Generator: Gravit.io -->
<svg xmlns="http://www.w3.org/2000/svg" xmlns:xlink="http://www.w3.org/1999/xlink" style="isolation:isolate" viewBox="634.763 444.923 137.237 122.092" width="137.237pt" height="122.092pt"><defs><clipPath id="_clipPath_iTUyOFW87FjXw2ZrxeoZ1KtZemjTNQDl"><rect x="634.763" y="444.923" width="137.237" height="122.092"/></clipPath></defs><g clip-path="url(#_clipPath_iTUyOFW87FjXw2ZrxeoZ1KtZemjTNQDl)"><path d="M 641.276 444.92 L 765.484 444.92 C 769.08 444.92 772 447.84 772 451.436 L 772 560.504 C 772 564.1 769.08 567.02 765.484 567.02 L 641.276 567.02 C 637.68 567.02 634.76 564.1 634.76 560.504 L 634.76 451.436 C 634.76 447.84 637.68 444.92 641.276 444.92 Z" style="stroke:none;fill:#171717;stroke-miterlimit:10;"/><g><g><path d=" M 728.194 522.501 L 700.994 522.501 L 700.994 522.501 Q 697.478 522.501 694.949 519.972 L 694.949 519.972 L 694.949 519.972 Q 692.42 517.443 692.42 513.927 L 692.42 513.927 L 692.42 486.665 L 692.42 486.665 Q 692.42 483.15 694.949 480.621 L 694.949 480.621 L 694.949 480.621 Q 697.478 478.092 700.994 478.092 L 700.994 478.092 L 728.194 478.092 L 728.194 478.092 Q 731.771 478.092 734.3 480.621 L 734.3 480.621 L 734.3 480.621 Q 736.829 483.15 736.829 486.665 L 736.829 486.665 L 736.829 490.119 L 728.626 490.119 L 728.626 488.454 L 728.626 488.454 Q 728.626 486.727 728.379 486.511 L 728.379 486.511 L 728.379 486.511 Q 728.132 486.295 726.467 486.295 L 726.467 486.295 L 702.721 486.295 L 702.721 486.295 Q 700.994 486.295 700.778 486.511 L 700.778 486.511 L 700.778 486.511 Q 700.562 486.727 700.562 488.454 L 700.562 488.454 L 700.562 512.139 L 700.562 512.139 Q 700.562 513.866 700.778 514.082 L 700.778 514.082 L 700.778 514.082 Q 700.994 514.298 702.721 514.298 L 702.721 514.298 L 726.467 514.298 L 726.467 514.298 Q 728.132 514.298 728.379 514.082 L 728.379 514.082 L 728.379 514.082 Q 728.626 513.866 728.626 512.139 L 728.626 512.139 L 728.626 505.539 L 718.572 505.539 L 718.572 497.336 L 736.829 497.336 L 736.829 513.927 L 736.829 513.927 Q 736.829 517.443 734.3 519.972 L 734.3 519.972 L 734.3 519.972 Q 731.771 522.501 728.194 522.501 L 728.194 522.501 Z " fill="rgb(255,200,0)"/><path d=" M 706.128 503.902 L 679.336 503.902 L 679.336 503.902 Q 675.881 503.902 673.395 501.417 L 673.395 501.417 L 673.395 501.417 Q 670.91 498.932 670.91 495.477 L 670.91 495.477 L 670.91 492.143 L 678.911 492.143 L 678.911 493.719 L 678.911 493.719 Q 678.911 495.416 679.124 495.628 L 679.124 495.628 L 679.124 495.628 Q 679.336 495.841 681.033 495.841 L 681.033 495.841 L 704.37 495.841 L 704.37 495.841 Q 706.067 495.841 706.279 495.628 L 706.279 495.628 L 706.279 495.628 Q 706.491 495.416 706.491 493.719 L 706.491 493.719 L 706.491 488.203 L 706.491 488.203 Q 706.491 486.506 706.279 486.324 L 706.279 486.324 L 706.279 486.324 Q 706.067 486.142 704.37 486.142 L 704.37 486.142 L 679.336 486.142 L 679.336 486.142 Q 675.881 486.142 673.395 483.627 L 673.395 483.627 L 673.395 483.627 Q 670.91 481.111 670.91 477.656 L 670.91 477.656 L 670.91 468.685 L 670.91 468.685 Q 670.91 465.23 673.395 462.744 L 673.395 462.744 L 673.395 462.744 Q 675.881 460.259 679.336 460.259 L 679.336 460.259 L 706.128 460.259 L 706.128 460.259 Q 709.583 460.259 712.068 462.744 L 712.068 462.744 L 712.068 462.744 Q 714.553 465.23 714.553 468.685 L 714.553 468.685 L 714.553 472.019 L 706.491 472.019 L 706.491 470.443 L 706.491 470.443 Q 706.491 468.745 706.279 468.533 L 706.279 468.533 L 706.279 468.533 Q 706.067 468.321 704.37 468.321 L 704.37 468.321 L 681.033 468.321 L 681.033 468.321 Q 679.336 468.321 679.124 468.533 L 679.124 468.533 L 679.124 468.533 Q 678.911 468.745 678.911 470.443 L 678.911 470.443 L 678.911 475.959 L 678.911 475.959 Q 678.911 477.656 679.124 477.838 L 679.124 477.838 L 679.124 477.838 Q 679.336 478.02 681.033 478.02 L 681.033 478.02 L 706.128 478.02 L 706.128 478.02 Q 709.583 478.02 712.068 480.535 L 712.068 480.535 L 712.068 480.535 Q 714.553 483.051 714.553 486.506 L 714.553 486.506 L 714.553 495.477 L 714.553 495.477 Q 714.553 498.932 712.068 501.417 L 712.068 501.417 L 712.068 501.417 Q 709.583 503.902 706.128 503.902 L 706.128 503.902 Z " fill="rgb(255,255,255)"/><path d=" M 699.83 478.092 L 719.806 478.092 L 719.806 486.255 L 692.42 486.255 L 692.42 485.502 C 692.42 481.412 695.74 478.092 699.83 478.092 Z " fill="rgb(255,200,0)"/></g></g><path d=" M 710.46 551.679 L 703.534 551.679 L 703.534 551.679 Q 702.619 551.679 701.978 551.038 L 701.978 551.038 L 701.978 551.038 Q 701.337 550.398 701.337 549.482 L 701.337 549.482 L 701.337 532.488 L 701.337 532.488 Q 701.337 531.603 701.978 530.962 L 701.978 530.962 L 701.978 530.962 Q 702.619 530.322 703.534 530.322 L 703.534 530.322 L 710.46 530.322 L 710.46 530.322 Q 711.375 530.322 712.016 530.962 L 712.016 530.962 L 712.016 530.962 Q 712.657 531.603 712.657 532.488 L 712.657 532.488 L 712.657 537.247 L 709.819 536.607 L 709.819 534.227 L 709.819 534.227 Q 709.819 533.769 709.499 533.449 L 709.499 533.449 L 709.499 533.449 Q 709.178 533.129 708.721 533.129 L 708.721 533.129 L 705.273 533.129 L 705.273 533.129 Q 704.815 533.129 704.495 533.449 L 704.495 533.449 L 704.495 533.449 Q 704.175 533.769 704.175 534.227 L 704.175 534.227 L 704.175 547.743 L 704.175 547.743 Q 704.175 548.201 704.495 548.521 L 704.495 548.521 L 704.495 548.521 Q 704.815 548.842 705.273 548.842 L 705.273 548.842 L 708.721 548.842 L 708.721 548.842 Q 709.178 548.842 709.499 548.521 L 709.499 548.521 L 709.499 548.521 Q 709.819 548.201 709.819 547.743 L 709.819 547.743 L 709.819 544.784 L 707.012 544.784 L 707.653 541.946 L 712.657 541.946 L 712.657 549.482 L 712.657 549.482 Q 712.657 550.398 712.016 551.038 L 712.016 551.038 L 712.016 551.038 Q 711.375 551.679 710.46 551.679 L 710.46 551.679 Z  M 724.373 551.679 L 717.996 551.679 L 717.996 551.679 Q 717.05 551.679 716.409 551.038 L 716.409 551.038 L 716.409 551.038 Q 715.769 550.398 715.769 549.452 L 715.769 549.452 L 715.769 536.424 L 718.637 536.424 L 718.637 547.713 L 718.637 547.713 Q 718.637 548.14 718.972 548.475 L 718.972 548.475 L 718.972 548.475 Q 719.308 548.811 719.735 548.811 L 719.735 548.811 L 721.505 548.811 L 721.505 536.424 L 724.373 536.424 L 724.373 551.679 L 724.373 551.679 Z  M 734.502 551.679 L 728.126 551.679 L 728.126 551.679 Q 727.21 551.679 726.554 551.038 L 726.554 551.038 L 726.554 551.038 Q 725.898 550.398 725.898 549.452 L 725.898 549.452 L 725.898 544.845 L 725.898 544.845 Q 725.898 543.929 726.554 543.273 L 726.554 543.273 L 726.554 543.273 Q 727.21 542.617 728.126 542.617 L 728.126 542.617 L 730.505 542.617 L 730.505 542.617 Q 730.994 542.617 731.314 542.297 L 731.314 542.297 L 731.314 542.297 Q 731.634 541.977 731.634 541.519 L 731.634 541.519 L 731.634 540.39 L 731.634 540.39 Q 731.634 539.932 731.314 539.612 L 731.314 539.612 L 731.314 539.612 Q 730.994 539.292 730.505 539.292 L 730.505 539.292 L 727.21 539.292 L 727.851 536.424 L 732.275 536.424 L 732.275 536.424 Q 733.19 536.424 733.846 537.08 L 733.846 537.08 L 733.846 537.08 Q 734.502 537.736 734.502 538.651 L 734.502 538.651 L 734.502 551.679 L 734.502 551.679 Z  M 729.865 548.811 L 729.865 548.811 L 731.634 548.811 L 731.634 545.485 L 729.865 545.485 L 729.865 545.485 Q 729.407 545.485 729.087 545.806 L 729.087 545.806 L 729.087 545.806 Q 728.766 546.126 728.766 546.584 L 728.766 546.584 L 728.766 547.713 L 728.766 547.713 Q 728.766 548.17 729.087 548.491 L 729.087 548.491 L 729.087 548.491 Q 729.407 548.811 729.865 548.811 Z  M 739.201 551.679 L 736.333 551.679 L 736.333 536.424 L 742.71 536.424 L 742.71 536.424 Q 743.625 536.424 744.281 537.08 L 744.281 537.08 L 744.281 537.08 Q 744.937 537.736 744.937 538.651 L 744.937 538.651 L 744.937 541.977 L 742.069 541.336 L 742.069 540.421 L 742.069 540.421 Q 742.069 539.963 741.749 539.627 L 741.749 539.627 L 741.749 539.627 Q 741.428 539.292 740.971 539.292 L 740.971 539.292 L 739.201 539.292 L 739.201 551.679 L 739.201 551.679 Z  M 754.761 551.679 L 748.385 551.679 L 748.385 551.679 Q 747.439 551.679 746.798 551.038 L 746.798 551.038 L 746.798 551.038 Q 746.157 550.398 746.157 549.452 L 746.157 549.452 L 746.157 538.651 L 746.157 538.651 Q 746.157 537.705 746.798 537.064 L 746.798 537.064 L 746.798 537.064 Q 747.439 536.424 748.385 536.424 L 748.385 536.424 L 751.893 536.424 L 751.893 529.467 L 754.761 528.796 L 754.761 551.679 L 754.761 551.679 Z  M 750.124 548.811 L 750.124 548.811 L 751.893 548.811 L 751.893 539.292 L 750.124 539.292 L 750.124 539.292 Q 749.697 539.292 749.361 539.597 L 749.361 539.597 L 749.361 539.597 Q 749.025 539.902 749.025 540.39 L 749.025 540.39 L 749.025 547.713 L 749.025 547.713 Q 749.025 548.14 749.361 548.475 L 749.361 548.475 L 749.361 548.475 Q 749.697 548.811 750.124 548.811 Z " fill="rgb(255,200,0)"/><path d=" M 661.124 551.679 L 654.198 551.679 L 654.198 551.679 Q 653.283 551.679 652.642 551.038 L 652.642 551.038 L 652.642 551.038 Q 652.002 550.398 652.002 549.482 L 652.002 549.482 L 652.002 544.753 L 654.839 545.394 L 654.839 547.743 L 654.839 547.743 Q 654.839 548.201 655.159 548.521 L 655.159 548.521 L 655.159 548.521 Q 655.48 548.842 655.907 548.842 L 655.907 548.842 L 659.385 548.842 L 659.385 548.842 Q 659.843 548.842 660.163 548.521 L 660.163 548.521 L 660.163 548.521 Q 660.483 548.201 660.483 547.743 L 660.483 547.743 L 660.483 542.373 L 660.483 542.373 Q 660.483 541.916 660.163 541.595 L 660.163 541.595 L 660.163 541.595 Q 659.843 541.275 659.385 541.275 L 659.385 541.275 L 654.198 541.275 L 654.198 541.275 Q 653.283 541.275 652.642 540.634 L 652.642 540.634 L 652.642 540.634 Q 652.002 539.993 652.002 539.078 L 652.002 539.078 L 652.002 532.518 L 652.002 532.518 Q 652.002 531.603 652.642 530.962 L 652.642 530.962 L 652.642 530.962 Q 653.283 530.322 654.198 530.322 L 654.198 530.322 L 661.124 530.322 L 661.124 530.322 Q 662.04 530.322 662.68 530.962 L 662.68 530.962 L 662.68 530.962 Q 663.321 531.603 663.321 532.518 L 663.321 532.518 L 663.321 535.813 L 660.483 535.142 L 660.483 534.257 L 660.483 534.257 Q 660.483 533.8 660.163 533.479 L 660.163 533.479 L 660.163 533.479 Q 659.843 533.159 659.385 533.159 L 659.385 533.159 L 655.907 533.159 L 655.907 533.159 Q 655.48 533.159 655.159 533.479 L 655.159 533.479 L 655.159 533.479 Q 654.839 533.8 654.839 534.257 L 654.839 534.257 L 654.839 537.339 L 654.839 537.339 Q 654.839 537.797 655.159 538.117 L 655.159 538.117 L 655.159 538.117 Q 655.48 538.437 655.907 538.437 L 655.907 538.437 L 661.124 538.437 L 661.124 538.437 Q 662.04 538.437 662.68 539.078 L 662.68 539.078 L 662.68 539.078 Q 663.321 539.719 663.321 540.634 L 663.321 540.634 L 663.321 549.482 L 663.321 549.482 Q 663.321 550.398 662.68 551.038 L 662.68 551.038 L 662.68 551.038 Q 662.04 551.679 661.124 551.679 L 661.124 551.679 Z  M 668.935 531.664 L 666.067 532.335 L 666.067 529.467 L 668.935 528.796 L 668.935 531.664 L 668.935 531.664 Z  M 668.996 551.679 L 666.128 551.679 L 666.128 537.095 L 668.996 536.424 L 668.996 551.679 L 668.996 551.679 Z  M 673.695 551.679 L 670.827 551.679 L 670.827 536.424 L 677.203 536.424 L 677.203 536.424 Q 678.119 536.424 678.775 537.08 L 678.775 537.08 L 678.775 537.08 Q 679.431 537.736 679.431 538.651 L 679.431 538.651 L 679.431 541.977 L 676.563 541.336 L 676.563 540.421 L 676.563 540.421 Q 676.563 539.963 676.242 539.627 L 676.242 539.627 L 676.242 539.627 Q 675.922 539.292 675.464 539.292 L 675.464 539.292 L 673.695 539.292 L 673.695 551.679 L 673.695 551.679 Z  M 683.824 531.664 L 680.956 532.335 L 680.956 529.467 L 683.824 528.796 L 683.824 531.664 L 683.824 531.664 Z  M 683.885 551.679 L 681.017 551.679 L 681.017 537.095 L 683.885 536.424 L 683.885 551.679 L 683.885 551.679 Z  M 688.706 551.679 L 685.838 551.679 L 685.838 536.424 L 692.215 536.424 L 692.215 536.424 Q 693.099 536.424 693.771 537.064 L 693.771 537.064 L 693.771 537.064 Q 694.442 537.705 694.442 538.62 L 694.442 538.62 L 694.442 551.679 L 691.574 551.679 L 691.574 540.39 L 691.574 540.39 Q 691.574 539.902 691.238 539.597 L 691.238 539.597 L 691.238 539.597 Q 690.903 539.292 690.475 539.292 L 690.475 539.292 L 688.706 539.292 L 688.706 551.679 L 688.706 551.679 Z " fill="rgb(255,255,255)"/></g></svg>